<mxfile host="app.diagrams.net" modified="2024-02-05T17:47:55.121Z" agent="Mozilla/5.0 (Macintosh; Intel Mac OS X 10.15; rv:122.0) Gecko/20100101 Firefox/122.0" version="23.1.1" etag="_dwoZtJyLxz-U_DKEQRu" type="github">
  <diagram name="Page-1" id="vvH7tQAIB8efV-H2PCTL">
    <mxGraphModel>
      <root>
        <mxCell id="0" />
        <mxCell id="1" parent="0" />
      </root>
    </mxGraphModel>
  </diagram>
</mxfile>
